<svg width="179" height="178" viewBox="0 0 179 178" fill="none" xmlns="http://www.w3.org/2000/svg">
<path d="M156.625 125.557V74.1668C156.625 46.1986 156.625 32.2107 147.884 23.5258C139.143 14.8409 125.084 14.8335 96.9583 14.8335H89.4999C61.3745 14.8335 47.3081 14.8335 38.5744 23.5258C29.8407 32.2182 29.8333 46.1986 29.8333 74.1668V144.625" stroke="#FF9800" stroke-width="5" stroke-linecap="round" stroke-linejoin="round"/>
<path d="M156.625 126.083H48.4791C43.5339 126.083 38.7913 128.037 35.2945 131.514C31.7977 134.991 29.8333 139.708 29.8333 144.625C29.8333 149.543 31.7977 154.259 35.2945 157.736C38.7913 161.213 43.5339 163.167 48.4791 163.167H156.625" stroke="#FF9800" stroke-width="5" stroke-linecap="round" stroke-linejoin="round"/>
<path d="M156.625 163.167C151.68 163.167 146.937 161.213 143.44 157.736C139.944 154.259 137.979 149.543 137.979 144.625C137.979 139.708 139.944 134.992 143.44 131.514C146.937 128.037 151.68 126.084 156.625 126.084M107.31 50.8045C109.756 49.1506 112.647 48.2692 115.604 48.2754C123.846 48.2754 130.521 54.9727 130.521 63.2348C130.521 71.3709 123.779 78.172 115.604 78.172V85.292C115.604 92.2859 115.604 95.7792 113.419 97.9522C111.234 100.125 107.721 100.125 100.688 100.125H85.7708C78.7376 100.125 75.2248 100.125 73.0395 97.9522C70.8542 95.7792 70.8542 92.2859 70.8542 85.292V79.0991C62.1428 79.0991 55.9375 72.6466 55.9375 63.2348C55.9375 54.9727 62.6127 48.2754 70.8542 48.2754C73.927 48.2754 76.7761 49.2025 79.1478 50.7971C80.1575 47.8805 82.0564 45.3495 84.5802 43.5562C87.104 41.763 90.1273 40.7967 93.2292 40.792C99.7328 40.792 105.267 44.9676 107.31 50.8045ZM107.31 50.8045C107.857 52.357 108.136 54.0085 108.146 55.7588" stroke="#FF9800" stroke-width="5" stroke-linecap="round" stroke-linejoin="round"/>
<line x1="31.6858" y1="137.041" x2="126.127" y2="137.041" stroke="#FF9800" stroke-width="2" stroke-linecap="round"/>
<line x1="31.6858" y1="145.033" x2="112.976" y2="145.033" stroke="#FF9800" stroke-width="2" stroke-linecap="round"/>
<line x1="1" y1="-1" x2="83.7541" y2="-1" transform="matrix(0.999963 0.00857222 -0.00866879 0.999962 56.2571 154.024)" stroke="#FF9800" stroke-width="2" stroke-linecap="round"/>
</svg>
