<svg width="16" height="16" viewBox="0 0 16 16" fill="none" xmlns="http://www.w3.org/2000/svg">
<g clip-path="url(#clip0_1_3276)">
<path d="M8 4C8.82843 4 9.5 3.32843 9.5 2.5C9.5 1.67157 8.82843 1 8 1C7.17157 1 6.5 1.67157 6.5 2.5C6.5 3.32843 7.17157 4 8 4Z" stroke="#1E1E1E" stroke-linecap="round" stroke-linejoin="round"/>
<path d="M9.3231 5C9.53593 5.00004 9.74632 5.04536 9.94029 5.13297C10.1343 5.22058 10.3074 5.34846 10.4481 5.50812L13.2806 8.71937C13.3504 8.78914 13.4057 8.87196 13.4435 8.96311C13.4812 9.05427 13.5006 9.15196 13.5006 9.25062C13.5006 9.34929 13.4812 9.44698 13.4435 9.53814C13.4057 9.62929 13.3504 9.71211 13.2806 9.78187C13.2108 9.85164 13.128 9.90698 13.0369 9.94474C12.9457 9.98249 12.848 10.0019 12.7493 10.0019C12.6507 10.0019 12.553 9.98249 12.4618 9.94474C12.3707 9.90698 12.2879 9.85164 12.2181 9.78187L9.99997 8L11.4293 13.4331C11.51 13.6129 11.5168 13.8172 11.448 14.0019C11.3793 14.1866 11.2406 14.3368 11.062 14.42C10.8834 14.5033 10.6792 14.5129 10.4936 14.4468C10.308 14.3808 10.1558 14.2443 10.07 14.0669L7.99997 10.5L5.92997 14.0669C5.84416 14.2443 5.69199 14.3808 5.50634 14.4468C5.3207 14.5129 5.11651 14.5033 4.93791 14.42C4.75931 14.3368 4.62066 14.1866 4.55192 14.0019C4.48319 13.8172 4.4899 13.6129 4.5706 13.4331L5.99997 8L3.7806 9.78063C3.6397 9.92152 3.44861 10.0007 3.24935 10.0007C3.05009 10.0007 2.85899 9.92152 2.7181 9.78063C2.5772 9.63973 2.49805 9.44863 2.49805 9.24938C2.49805 9.05012 2.5772 8.85902 2.7181 8.71813L5.55185 5.50812C5.69258 5.34846 5.86569 5.22058 6.05966 5.13297C6.25362 5.04536 6.46401 5.00004 6.67685 5H9.3231Z" stroke="#1E1E1E" stroke-linecap="round" stroke-linejoin="round"/>
</g>
<defs>
<clipPath id="clip0_1_3276">
<rect width="16" height="16" fill="white"/>
</clipPath>
</defs>
</svg>
