<svg width="16" height="16" viewBox="0 0 16 16" fill="none" xmlns="http://www.w3.org/2000/svg">
<g clip-path="url(#clip0_1_3271)">
<path d="M9.98872 9.98921L8.46747 14.173C8.43195 14.2686 8.368 14.3512 8.28421 14.4095C8.20041 14.4677 8.10079 14.499 7.99872 14.499C7.89665 14.499 7.79703 14.4677 7.71324 14.4095C7.62944 14.3512 7.56549 14.2686 7.52997 14.173L6.01122 9.98921L1.82747 8.46796C1.73178 8.43244 1.64926 8.36849 1.59098 8.2847C1.5327 8.2009 1.50146 8.10128 1.50146 7.99921C1.50146 7.89714 1.5327 7.79752 1.59098 7.71373C1.64926 7.62993 1.73178 7.56598 1.82747 7.53046L6.01122 6.01171L7.53247 1.82796C7.56799 1.73227 7.63194 1.64975 7.71574 1.59147C7.79953 1.53319 7.89915 1.50195 8.00122 1.50195C8.10329 1.50195 8.20291 1.53319 8.28671 1.59147C8.3705 1.64975 8.43445 1.73227 8.46997 1.82796L9.99122 6.01171L14.175 7.53296C14.2707 7.56848 14.3532 7.63243 14.4115 7.71623C14.4697 7.80002 14.501 7.89964 14.501 8.00171C14.501 8.10378 14.4697 8.2034 14.4115 8.2872C14.3532 8.37099 14.2707 8.43494 14.175 8.47046L9.98872 9.98921Z" stroke="black" stroke-linecap="round" stroke-linejoin="round"/>
</g>
<defs>
<clipPath id="clip0_1_3271">
<rect width="16" height="16" fill="white"/>
</clipPath>
</defs>
</svg>
